# xmcd CD database file
#
# Track frame offsets:
#	150
#	22650
#	44475
#	66975
#
# Disc length: 1180 seconds
#
# Revision: 0
# Processed by: cddbd v1.5.1PL2 Copyright (c) Steve Scherf et al.
# Submitted via: CDex 1.51
#
DISCID=2c049a04
DTITLE=野猿 - selfish
DYEAR=1900
DGENRE=JPop
TTITLE0=selfish
TTITLE1=あれから
TTITLE2=selfish (original karaoke)
TTITLE3=あれから (original karaoke)
EXTD=
EXTT0=
EXTT1=
EXTT2=
EXTT3=
PLAYORDER=
